<svg width="24" height="24" viewBox="0 0 24 24" fill="none" xmlns="http://www.w3.org/2000/svg">
<path d="M12 8C13.6569 8 15 6.65685 15 5C15 3.34315 13.6569 2 12 2C10.3431 2 9 3.34315 9 5C9 6.65685 10.3431 8 12 8Z" stroke="#555555" stroke-width="1.5"/>
<path d="M12 22C13.1046 22 14 21.1046 14 20C14 18.8954 13.1046 18 12 18C10.8954 18 10 18.8954 10 20C10 21.1046 10.8954 22 12 22Z" stroke="#555555" stroke-width="1.5"/>
<path d="M20 22C21.1046 22 22 21.1046 22 20C22 18.8954 21.1046 18 20 18C18.8954 18 18 18.8954 18 20C18 21.1046 18.8954 22 20 22Z" stroke="#555555" stroke-width="1.5"/>
<path d="M4 22C5.10457 22 6 21.1046 6 20C6 18.8954 5.10457 18 4 18C2.89543 18 2 18.8954 2 20C2 21.1046 2.89543 22 4 22Z" stroke="#555555" stroke-width="1.5"/>
<path d="M20 15C20 13.8954 18.8807 13 17.5 13H6.5C5.11929 13 4 13.8954 4 15" stroke="#555555" stroke-width="1.5" stroke-linecap="round"/>
<path d="M12 11V15" stroke="#555555" stroke-width="1.5" stroke-linecap="round"/>
</svg>
