<svg width="24" height="24" viewBox="0 0 24 24" fill="none" xmlns="http://www.w3.org/2000/svg">
<path fill-rule="evenodd" clip-rule="evenodd" d="M19.1744 17.6691C19.1744 20.6549 15.0799 21 12.0008 21L11.7805 20.9998C9.81878 20.995 4.82544 20.8712 4.82544 17.651C4.82544 14.7262 8.75542 14.3353 11.811 14.3206L12.2212 14.3203C14.1828 14.3251 19.1744 14.4489 19.1744 17.6691ZM12.0008 15.6789C8.14092 15.6789 6.18424 16.342 6.18424 17.651C6.18424 18.9718 8.14092 19.6412 12.0008 19.6412C15.8598 19.6412 17.8156 18.9781 17.8156 17.6691C17.8156 16.3484 15.8598 15.6789 12.0008 15.6789ZM12.0008 3C14.6532 3 16.8101 5.15778 16.8101 7.81017C16.8101 10.4626 14.6532 12.6194 12.0008 12.6194H11.9718C9.3249 12.6113 7.1807 10.4526 7.18973 7.80745C7.18973 5.15778 9.34754 3 12.0008 3ZM12.0008 4.29358C10.0614 4.29358 8.48332 5.8707 8.48332 7.81017C8.477 9.7433 10.0433 11.3195 11.9746 11.3268L12.0008 11.9735V11.3268C13.9394 11.3268 15.5165 9.74873 15.5165 7.81017C15.5165 5.8707 13.9394 4.29358 12.0008 4.29358Z" fill="#555555"/>
</svg>
