<svg width="227" height="251" viewBox="0 0 227 251" fill="none" xmlns="http://www.w3.org/2000/svg">
<path d="M120.936 157.064V116.31H226.2V212.659C215.96 222.561 201.145 231.268 181.73 238.806C162.314 246.343 142.665 250.112 122.756 250.112C97.4665 250.112 75.4001 244.81 56.6085 234.179C37.791 223.575 23.6519 208.396 14.1911 188.669C4.73037 168.916 0 147.447 0 124.237C0 99.0519 5.27619 76.6736 15.8286 57.1023C26.4069 37.5051 41.8456 22.4823 62.1966 12.0339C77.7133 4.02861 96.9987 0 120.105 0C150.124 0 173.594 6.28983 190.463 18.8955C207.357 31.5012 218.195 48.8892 223.055 71.1115L174.556 80.1824C171.151 68.3045 164.731 58.9217 155.323 52.0601C145.914 45.1984 134.166 41.7416 120.105 41.7416C98.766 41.7416 81.7939 48.4993 69.2142 62.0406C56.6085 75.582 50.3187 95.6471 50.3187 122.262C50.3187 150.956 56.6865 172.503 69.4481 186.85C82.2097 201.197 98.922 208.37 119.611 208.37C129.851 208.37 140.092 206.369 150.384 202.34C160.677 198.338 169.488 193.451 176.869 187.733V157.064H120.936Z" fill="#004368"/>
</svg>
