<svg width="293" height="313" viewBox="0 0 293 313" fill="none" xmlns="http://www.w3.org/2000/svg">
<path d="M135.619 130.021C132.263 129.662 128.899 129.429 125.525 129.326C113.437 128.948 91.3573 127.295 75.9788 128.445C67.2939 129.096 62.2325 132.721 62.0675 143.187C61.9061 153.655 62.1775 225.009 62.6103 242.655C63.1531 252.08 62.7203 259.534 79.1294 266.77C95.5384 274.006 148.569 296.034 171.716 298.557C178.563 299.763 187.039 298.775 187.472 285.403C187.908 272.03 189.537 176.346 189.753 162.533C189.947 150.204 189.038 140.956 178.009 136.284C175.886 135.385 173.645 134.804 171.371 134.456C159.396 132.64 143.625 130.876 135.619 130.021Z" stroke="#004368" stroke-width="2" stroke-miterlimit="10"/>
<path d="M136.506 118.676C132.035 118.224 127.546 117.962 123.053 117.884C100.361 117.499 87.928 118.095 79.0487 118.69C69.2707 119.349 58.1577 122.967 57.0171 138.255C57.0758 161.276 57.7763 234.435 58.5942 247.26C59.4121 260.085 62.3425 267.155 87.1212 277.346C111.9 287.537 146.13 301.184 162.755 305.297C178.079 310.065 195.031 309.407 195.845 292.801C196.659 276.195 199.432 172.288 199.758 151.243C198.779 137.434 197.477 124.609 166.83 121.65C150.938 120.118 141.71 119.201 136.506 118.676Z" stroke="#004368" stroke-width="2" stroke-miterlimit="10"/>
<path d="M132.215 118.298C132.215 118.298 167.263 118.472 190.52 122.526C213.776 126.581 217.58 136.228 218.555 154.969C218.159 185.228 214.968 248.573 215.185 253.504C214.653 267.243 215.185 280.139 208.121 287.045C201.057 293.952 191.649 303.329 191.649 303.329" stroke="#004368" stroke-width="2" stroke-miterlimit="10"/>
<path d="M211.535 229.659C212.346 229.693 213.028 229.06 213.061 228.243L213.673 213.294C213.706 212.477 213.079 211.788 212.269 211.755C211.458 211.722 210.776 212.354 210.743 213.172L210.13 228.12C210.094 228.938 210.725 229.626 211.535 229.659Z" stroke="#004368" stroke-miterlimit="10"/>
<path d="M214.81 189.249C215.5 189.264 216.072 188.713 216.087 188.017L216.241 181.004C216.255 180.308 215.709 179.731 215.019 179.716C214.33 179.701 213.758 180.253 213.743 180.948L213.589 187.962C213.574 188.657 214.121 189.234 214.81 189.249Z" stroke="#004368" stroke-miterlimit="10"/>
<path d="M86.1676 177.83C86.1713 177.915 86.1493 177.985 86.1052 178.037L84.3484 180.219C84.2421 180.353 84.1321 180.341 84.0184 180.186L83.4352 179.369C83.3875 179.309 83.3655 179.235 83.3618 179.15L83.0171 168.312C83.0134 168.227 83.0354 168.156 83.0758 168.101L83.6112 167.317C83.7176 167.18 83.8276 167.183 83.9413 167.331L85.8448 169.784C85.8925 169.843 85.9145 169.917 85.9182 170.002L86.1676 177.83ZM86.5784 191.125C86.582 191.21 86.56 191.28 86.5197 191.328L84.7666 193.407C84.6602 193.533 84.5502 193.518 84.4365 193.359L83.8533 192.479C83.8093 192.416 83.7836 192.342 83.78 192.257L83.4389 181.485C83.4352 181.399 83.4535 181.333 83.4976 181.277L84.033 180.567C84.1394 180.438 84.2494 180.445 84.3631 180.6L86.2666 183.131C86.3143 183.194 86.3363 183.268 86.34 183.353L86.5784 191.125ZM92.751 169.78C92.707 169.836 92.6483 169.862 92.5787 169.858L86.3143 169.514C86.2483 169.51 86.1896 169.477 86.1419 169.418L84.2347 167.006C84.1211 166.858 84.1137 166.717 84.2201 166.577L84.7922 165.829C84.8362 165.774 84.8913 165.748 84.9573 165.752L93.7743 166.114C93.844 166.118 93.9063 166.151 93.954 166.21L94.6215 167.039C94.7462 167.194 94.7499 167.342 94.6362 167.483L92.751 169.78ZM94.8343 196.429C94.7866 196.481 94.7316 196.5 94.6582 196.492L85.8705 195.175C85.8045 195.164 85.7495 195.131 85.7018 195.064L85.082 194.214C84.9683 194.084 84.9646 193.958 85.071 193.832L86.8278 191.754C86.8718 191.702 86.9268 191.683 86.9928 191.691L93.2425 192.545C93.3122 192.556 93.3709 192.593 93.4222 192.656L95.4394 195.342C95.5384 195.501 95.5421 195.634 95.4504 195.738L94.8343 196.429ZM96.3673 180.345C96.371 180.434 96.349 180.508 96.3013 180.56L95.6778 181.3C95.5605 181.436 95.4541 181.425 95.3551 181.27L93.3305 178.666C93.2828 178.603 93.2572 178.529 93.2535 178.44L93.0188 170.42C93.0151 170.331 93.0371 170.261 93.0848 170.202L94.97 167.864C95.0617 167.749 95.168 167.757 95.2927 167.879L95.9639 168.759C96.0152 168.822 96.0409 168.896 96.0409 168.985L96.3673 180.345ZM96.7598 194.08C96.7634 194.169 96.7414 194.239 96.6938 194.291L96.0703 195.038C95.9566 195.168 95.8465 195.153 95.7475 194.99L93.7266 192.305C93.6789 192.242 93.6533 192.164 93.6496 192.075L93.4149 184.104C93.4112 184.015 93.4332 183.944 93.4809 183.893L95.3661 181.666C95.4578 181.558 95.5641 181.566 95.6888 181.695L96.36 182.557C96.4113 182.624 96.437 182.698 96.437 182.787L96.7598 194.08Z" stroke="#004368"/>
<path d="M101.986 179.184C101.99 179.276 101.964 179.35 101.916 179.406L99.936 181.703C99.8149 181.84 99.6939 181.829 99.5655 181.666L98.9163 180.8C98.865 180.737 98.8393 180.66 98.8357 180.567L98.5129 169.103C98.5092 169.014 98.5312 168.94 98.5789 168.881L99.1804 168.053C99.2978 167.908 99.4225 167.912 99.5509 168.071L101.671 170.675C101.722 170.738 101.751 170.816 101.751 170.908L101.986 179.184ZM102.375 193.252C102.379 193.34 102.353 193.414 102.305 193.466L100.328 195.649C100.207 195.782 100.086 195.763 99.958 195.597L99.3088 194.661C99.2574 194.595 99.2318 194.517 99.2281 194.428L98.909 183.038C98.9053 182.949 98.9274 182.875 98.975 182.82L99.5765 182.073C99.6939 181.936 99.8186 181.947 99.947 182.11L102.063 184.799C102.115 184.866 102.144 184.943 102.144 185.032L102.375 193.252ZM109.428 170.69C109.376 170.749 109.31 170.779 109.233 170.772L102.199 170.387C102.122 170.383 102.06 170.35 102.008 170.283L99.8846 167.723C99.7562 167.568 99.7526 167.416 99.8736 167.272L100.523 166.484C100.57 166.425 100.633 166.399 100.706 166.399L110.605 166.806C110.686 166.81 110.752 166.843 110.807 166.91L111.551 167.79C111.691 167.953 111.694 168.112 111.562 168.26L109.428 170.69ZM111.566 182.835C111.702 183.001 111.709 183.157 111.577 183.297L110.183 184.814C110.132 184.869 110.066 184.895 109.989 184.884L102.199 184.085C102.126 184.078 102.06 184.041 102.008 183.978L100.622 182.235C100.493 182.076 100.49 181.928 100.611 181.788L101.909 180.26C101.957 180.205 102.019 180.179 102.093 180.186L109.886 180.882C109.967 180.889 110.033 180.926 110.088 180.993L111.566 182.835ZM111.614 198.941C111.562 198.997 111.496 199.015 111.416 199.004L101.561 197.524C101.487 197.513 101.425 197.476 101.374 197.406L100.684 196.5C100.556 196.363 100.552 196.23 100.673 196.096L102.654 193.914C102.701 193.862 102.764 193.84 102.837 193.851L109.846 194.809C109.927 194.82 109.993 194.861 110.044 194.927L112.3 197.791C112.41 197.961 112.413 198.101 112.311 198.209L111.614 198.941ZM113.433 181.906C113.437 181.999 113.411 182.076 113.356 182.136L112.648 182.912C112.516 183.057 112.395 183.046 112.285 182.879L110.022 180.105C109.967 180.038 109.938 179.957 109.938 179.864L109.721 171.36C109.718 171.267 109.743 171.19 109.795 171.13L111.933 168.656C112.036 168.534 112.157 168.541 112.296 168.674L113.048 169.61C113.103 169.677 113.132 169.758 113.136 169.85L113.433 181.906ZM113.796 196.47C113.8 196.562 113.774 196.64 113.719 196.692L113.015 197.476C112.883 197.613 112.762 197.595 112.652 197.424L110.392 194.561C110.337 194.491 110.308 194.41 110.308 194.317L110.092 185.868C110.088 185.776 110.114 185.702 110.165 185.642L112.3 183.293C112.402 183.179 112.523 183.19 112.663 183.327L113.411 184.244C113.466 184.314 113.495 184.392 113.499 184.488L113.796 196.47Z" stroke="#004368"/>
<path d="M119.881 177.878C119.884 178.103 119.789 178.207 119.591 178.192L116.572 177.959C116.378 177.944 116.279 177.826 116.275 177.604L116.191 174.167C116.187 173.946 116.279 173.838 116.473 173.853L119.496 174.045C119.694 174.056 119.796 174.179 119.8 174.404L119.881 177.878ZM120.196 191.306C120.2 191.528 120.104 191.628 119.906 191.602L116.892 191.236C116.697 191.213 116.598 191.091 116.594 190.873L116.51 187.448C116.506 187.229 116.598 187.13 116.792 187.152L119.807 187.477C120.005 187.499 120.104 187.622 120.112 187.843L120.196 191.306Z" stroke="#004368"/>
<path d="M126.669 181.3C126.673 181.399 126.644 181.477 126.585 181.54L124.227 184.018C124.084 184.166 123.941 184.155 123.79 183.978L123.035 183.031C122.976 182.961 122.943 182.875 122.943 182.779L122.661 170.342C122.657 170.246 122.686 170.165 122.741 170.102L123.46 169.207C123.603 169.051 123.746 169.055 123.897 169.229L126.38 172.066C126.438 172.137 126.471 172.218 126.475 172.318L126.669 181.3ZM135.549 172.114C135.486 172.181 135.409 172.211 135.314 172.203L126.992 171.748C126.904 171.745 126.827 171.708 126.768 171.637L124.282 168.848C124.131 168.678 124.128 168.515 124.271 168.356L125.041 167.502C125.1 167.439 125.169 167.409 125.257 167.413L136.976 167.894C137.071 167.897 137.152 167.934 137.214 168.005L138.091 168.966C138.252 169.144 138.256 169.318 138.102 169.481L135.549 172.114ZM137.98 185.35C138.142 185.535 138.146 185.702 137.991 185.853L136.323 187.492C136.26 187.551 136.183 187.577 136.088 187.57L126.871 186.623C126.783 186.615 126.706 186.575 126.647 186.504L125.023 184.603C124.872 184.429 124.869 184.266 125.012 184.118L126.556 182.472C126.614 182.413 126.688 182.387 126.776 182.395L135.996 183.216C136.092 183.223 136.169 183.264 136.235 183.338L137.98 185.35ZM137.892 202.877C137.83 202.936 137.753 202.958 137.658 202.944L126.006 201.194C125.918 201.179 125.844 201.138 125.786 201.064L124.979 200.073C124.832 199.921 124.828 199.777 124.968 199.637L127.326 197.299C127.385 197.243 127.458 197.217 127.546 197.232L135.835 198.364C135.93 198.375 136.007 198.42 136.07 198.497L138.718 201.642C138.846 201.83 138.85 201.982 138.725 202.097L137.892 202.877ZM140.507 200.217C140.507 200.321 140.478 200.399 140.416 200.458L139.572 201.301C139.415 201.449 139.271 201.427 139.143 201.238L136.488 198.094C136.422 198.016 136.392 197.931 136.389 197.828L136.209 188.635C136.205 188.535 136.235 188.454 136.297 188.391L138.85 185.857C138.974 185.735 139.117 185.746 139.279 185.898L140.163 186.904C140.229 186.978 140.262 187.067 140.265 187.17L140.507 200.217Z" stroke="#004368"/>
<path d="M147.777 183.108C147.777 183.212 147.747 183.297 147.681 183.364L144.978 185.99C144.817 186.149 144.652 186.131 144.483 185.942L143.629 184.928C143.563 184.854 143.526 184.762 143.526 184.658L143.288 171.389C143.288 171.286 143.317 171.201 143.383 171.134L144.208 170.18C144.37 170.013 144.535 170.021 144.703 170.202L147.513 173.239C147.582 173.313 147.615 173.402 147.619 173.509L147.777 183.108ZM160.691 187.514C160.874 187.714 160.878 187.892 160.698 188.054L158.776 189.793C158.706 189.856 158.615 189.885 158.508 189.874L147.979 188.794C147.876 188.783 147.791 188.742 147.725 188.665L145.888 186.623C145.719 186.434 145.716 186.264 145.881 186.105L147.656 184.355C147.722 184.292 147.806 184.263 147.905 184.274L158.446 185.213C158.552 185.224 158.644 185.269 158.717 185.346L160.691 187.514ZM163.254 186.464C163.254 186.575 163.221 186.663 163.148 186.73L162.169 187.625C161.989 187.792 161.824 187.773 161.674 187.577L158.64 184.307C158.567 184.229 158.53 184.133 158.527 184.026L158.38 174.123C158.38 174.012 158.413 173.927 158.483 173.857L161.439 170.997C161.582 170.857 161.747 170.864 161.934 171.019L162.943 172.118C163.016 172.196 163.056 172.288 163.056 172.399L163.254 186.464ZM163.482 203.443C163.482 203.554 163.449 203.639 163.375 203.702L162.4 204.593C162.22 204.749 162.055 204.727 161.908 204.523L158.886 201.131C158.813 201.05 158.776 200.953 158.776 200.846L158.633 191.017C158.633 190.91 158.666 190.825 158.736 190.758L161.681 188.069C161.824 187.936 161.989 187.954 162.176 188.117L163.181 189.201C163.254 189.282 163.295 189.379 163.295 189.486L163.482 203.443Z" stroke="#004368"/>
<path d="M112.469 77.95V76.05C112.469 72.0195 112.469 70.0042 111.078 68.7521C109.687 67.5 107.448 67.5 102.969 67.5C98.4911 67.5 96.252 67.5 94.8607 68.7521C93.4695 70.0042 93.4695 72.0195 93.4695 76.05V77.95C93.4695 81.9805 93.4695 83.9958 94.8607 85.2479C96.252 86.5 98.4911 86.5 102.969 86.5C107.448 86.5 109.687 86.5 111.078 85.2479C112.469 83.9958 112.469 81.9805 112.469 77.95Z" stroke="#003D5F" stroke-width="1.5"/>
<path d="M108.969 73H104.969M106.969 71V75" stroke="#003D5F" stroke-width="1.5" stroke-linecap="round" stroke-linejoin="round"/>
<path d="M108.969 82.5H104.969" stroke="#003D5F" stroke-width="1.5" stroke-linecap="round" stroke-linejoin="round"/>
<path d="M108.969 79.5H104.969" stroke="#336986" stroke-width="1.5" stroke-linecap="round" stroke-linejoin="round"/>
<path d="M100.969 82.5L99.2195 80.75M99.2195 80.75L97.4695 79M99.2195 80.75L100.969 79M99.2195 80.75L97.4695 82.5" stroke="#336986" stroke-width="1.5" stroke-linecap="round" stroke-linejoin="round"/>
<path d="M100.969 73H96.9695" stroke="#336986" stroke-width="1.5" stroke-linecap="round" stroke-linejoin="round"/>
<path d="M198.869 81.3657C199.985 79.5838 200.895 78.5931 202.162 78.2348C203.43 77.8764 204.724 78.2436 206.608 79.1775M215.453 90.6384C216.386 88.7549 216.754 87.4604 216.395 86.1931C216.037 84.9257 215.046 84.0151 213.264 82.8995M203.992 99.4831C205.875 100.417 207.17 100.784 208.437 100.426C209.704 100.068 210.615 99.0768 211.731 97.2949M197.335 95.7611C195.553 94.6455 194.563 93.7349 194.204 92.4677C193.846 91.2003 194.213 89.9057 195.147 88.0222" stroke="#003D5F" stroke-width="1.5" stroke-linecap="round" stroke-linejoin="round"/>
<path d="M207.66 96.3786L207.898 95.539C208.094 94.8453 207.902 94.0994 207.395 93.5871L205.633 91.8075L206.349 90.5264C207.427 90.4358 208.506 89.743 209.138 88.6122C210.081 86.9251 209.674 84.9018 208.228 84.0932C206.782 83.2846 204.844 83.9968 203.901 85.684C203.269 86.8147 203.243 88.0964 203.731 89.0623L203.015 90.3434L200.586 89.7874C199.904 89.6313 199.19 89.8428 198.703 90.3452L198.059 91.0102" stroke="#003D5F" stroke-width="1.5" stroke-linecap="round" stroke-linejoin="round"/>
<path d="M187.395 8.95392L195.077 11.1858" stroke="#8AA9BA" stroke-width="1.5" stroke-linecap="round" stroke-linejoin="round"/>
<path d="M186.279 12.7951L190.12 13.911" stroke="#8AA9BA" stroke-width="1.5" stroke-linecap="round" stroke-linejoin="round"/>
<path d="M188.151 24.2731L188.29 23.793C189.079 21.0769 189.474 19.7188 190.563 19.1202C191.652 18.5215 193.01 18.916 195.726 19.7051L196.206 19.8446M197.149 18.393L198.081 15.1826C199.133 11.5611 199.659 9.75034 198.861 8.29842C198.063 6.84654 196.252 6.32046 192.631 5.26837C189.009 4.21627 187.198 3.69022 185.746 4.48843C184.295 5.28664 183.769 7.09739 182.716 10.7189L181.449 15.0827C180.543 18.1988 180.091 19.7569 180.635 21.0595C180.745 21.3226 180.883 21.5732 181.046 21.807C181.854 22.9646 183.412 23.4172 186.528 24.3225C187.206 24.5193 187.545 24.6177 187.887 24.5984C187.958 24.5944 188.029 24.5865 188.099 24.575C188.437 24.5192 188.746 24.3493 189.365 24.0094L195.234 20.7823C195.951 20.3884 196.309 20.1915 196.558 19.881C196.806 19.5706 196.92 19.178 197.149 18.393Z" stroke="#8AA9BA" stroke-width="1.5" stroke-linecap="round" stroke-linejoin="round"/>
<path d="M287.276 114.943L287.437 112.605C287.493 111.789 287.522 111.382 287.395 111.004C287.268 110.627 287 110.319 286.463 109.703L282.064 104.651C281.6 104.119 281.369 103.853 281.07 103.685C281.008 103.65 280.945 103.618 280.879 103.59C280.565 103.454 280.213 103.429 279.509 103.381C276.272 103.158 274.653 103.046 273.496 103.854C273.262 104.018 273.046 104.205 272.852 104.415C271.893 105.45 271.781 107.069 271.558 110.306L271.314 113.842M281.015 103.986L280.981 104.485C280.786 107.306 280.689 108.717 281.505 109.654C282.321 110.591 283.732 110.689 286.554 110.883L287.052 110.918" stroke="#8AA9BA" stroke-width="1.5" stroke-linecap="round" stroke-linejoin="round"/>
<path d="M277.592 117.282L277.317 121.272C277.252 122.213 277.22 122.683 277.492 122.996C277.764 123.308 278.234 123.34 279.175 123.405L280.671 123.508" stroke="#8AA9BA" stroke-width="1.5" stroke-linecap="round" stroke-linejoin="round"/>
<path d="M271.108 116.835L272.896 119.965M272.896 119.965L274.685 123.096M272.896 119.965L275.098 117.11M272.896 119.965L270.695 122.82" stroke="#8AA9BA" stroke-width="1.5" stroke-linecap="round" stroke-linejoin="round"/>
<path d="M287.07 117.935L284.576 117.763C284.025 117.725 283.547 118.141 283.509 118.692L283.44 119.69C283.402 120.241 283.818 120.718 284.369 120.756L285.866 120.86C286.417 120.897 286.833 121.375 286.795 121.926L286.726 122.924C286.688 123.475 286.211 123.89 285.66 123.852L283.165 123.68" stroke="#8AA9BA" stroke-width="1.5" stroke-linecap="round" stroke-linejoin="round"/>
<path d="M14.2017 153.313C15.7471 154.892 15.72 157.424 14.1413 158.97C12.5627 160.515 10.0301 160.488 8.48481 158.909C6.93947 157.331 6.96651 154.798 8.5452 153.253C10.1239 151.708 12.6564 151.735 14.2017 153.313Z" stroke="#003D5F" stroke-width="1.5" stroke-linecap="round" stroke-linejoin="round"/>
<path d="M26.5112 159.455L25.0196 160.076L23.3407 158.361M21.8813 162.588C23.4266 164.167 25.9592 164.194 27.5379 162.649C29.1165 161.103 29.1436 158.571 27.5982 156.992C26.0529 155.413 23.5204 155.386 21.9417 156.932C20.3631 158.477 20.336 161.009 21.8813 162.588Z" stroke="#003D5F" stroke-width="1.5" stroke-linecap="round" stroke-linejoin="round"/>
<path d="M21.4938 165.766L17.5634 169.614C16.7741 170.386 15.5079 170.373 14.7352 169.583C12.8035 167.61 12.8373 164.444 14.8107 162.513L18.0264 159.365" stroke="#003D5F" stroke-width="1.5" stroke-linecap="round" stroke-linejoin="round"/>
<path d="M31.9695 76C31.9695 73.2386 29.7309 71 26.9695 71C24.2081 71 21.9695 73.2386 21.9695 76C21.9695 78.7614 24.2081 81 26.9695 81C29.7309 81 31.9695 78.7614 31.9695 76Z" stroke="#B0C5D0" stroke-width="1.5" stroke-linecap="round" stroke-linejoin="round"/>
<path d="M37.9695 83.5H33.4695C32.6411 83.5 31.9695 84.1716 31.9695 85C31.9695 85.8284 32.6411 86.5 33.4695 86.5H36.4695C37.2979 86.5 37.9695 87.1716 37.9695 88C37.9695 88.8284 37.2979 89.5 36.4695 89.5H31.9695M34.9695 82V91" stroke="#B0C5D0" stroke-width="1.5" stroke-linecap="round" stroke-linejoin="round"/>
<path d="M19.9695 88C19.9695 84.134 23.1035 81 26.9695 81C28.0431 81 29.0602 81.2417 29.9695 81.6736" stroke="#B0C5D0" stroke-width="1.5" stroke-linecap="round" stroke-linejoin="round"/>
<path d="M81.9695 14C81.9695 15.6568 80.6264 17 78.9695 17C77.3126 17 75.9695 15.6568 75.9695 14C75.9695 12.3432 77.3126 11 78.9695 11C80.6264 11 81.9695 12.3432 81.9695 14Z" stroke="#003D5F" stroke-width="1.5" stroke-linecap="round" stroke-linejoin="round"/>
<path d="M82.9695 10C84.6264 10 85.9695 11.3432 85.9695 13C85.9695 14.2231 85.2376 15.2752 84.1878 15.7423" stroke="#003D5F" stroke-width="1.5" stroke-linecap="round" stroke-linejoin="round"/>
<path d="M80.6838 20H77.2552C74.8882 20 72.9695 21.9188 72.9695 24.2857C72.9695 25.2325 73.737 26 74.6837 26H83.2552C84.202 26 84.9695 25.2325 84.9695 24.2857C84.9695 21.9188 83.0507 20 80.6838 20Z" stroke="#003D5F" stroke-width="1.5" stroke-linecap="round" stroke-linejoin="round"/>
<path d="M84.6838 19C87.0507 19 88.9695 20.9188 88.9695 23.2857C88.9695 24.2325 88.202 25 87.2552 25" stroke="#336986" stroke-width="1.5" stroke-linecap="round" stroke-linejoin="round"/>
<path d="M74.9695 10C73.3126 10 71.9695 11.3432 71.9695 13C71.9695 14.2231 72.7014 15.2752 73.7512 15.7423" stroke="#336986" stroke-width="1.5" stroke-linecap="round" stroke-linejoin="round"/>
<path d="M70.6838 25C69.737 25 68.9695 24.2325 68.9695 23.2857C68.9695 20.9188 70.8883 19 73.2552 19" stroke="#336986" stroke-width="1.5" stroke-linecap="round" stroke-linejoin="round"/>
<path d="M274.015 205.348L271.403 201.084C270.418 199.476 269.926 198.673 269.12 198.479C268.315 198.286 267.511 198.778 265.903 199.763L267.194 209.527L259.081 203.943C257.473 204.928 256.67 205.42 256.476 206.226C256.283 207.031 256.775 207.835 257.76 209.443L260.372 213.706" stroke="#B0C5D0" stroke-width="1.5" stroke-linecap="round" stroke-linejoin="round"/>
<path d="M263.537 203.558L265.2 207.23L266.41 208.248L266.053 206.708L263.537 203.558ZM263.537 203.558L261.639 202.375L263.345 201.33L263.537 203.558Z" stroke="#B0C5D0" stroke-width="1.5" stroke-linecap="round" stroke-linejoin="round"/>
<path d="M262.081 194.482L261.558 193.629C260.548 191.981 258.394 191.463 256.745 192.473C255.097 193.483 254.58 195.638 255.589 197.286L256.112 198.139C257.122 199.787 259.277 200.305 260.925 199.295C262.573 198.285 263.091 196.13 262.081 194.482Z" stroke="#B0C5D0" stroke-width="1.5" stroke-linecap="round" stroke-linejoin="round"/>
</svg>
